# xmcd
#
# Track frame offsets:
#	150
#	18677
#	36528
#	51851
#	67166
#	81817
#	101166
#	116528
#	134543
#	149057
#	166083
#
# Disc length: 2439 seconds
#
# Revision: 0
# Processed by: cddbd v1.4PL0 Copyright (c) Steve Scherf et al.
# Submitted via: dBpowerAMP V4.0
#
DISCID=a809850b
DTITLE=Mark Owen - In Your Own Time
DYEAR=2003
DGENRE=Country
TTITLE0=Four Minute Warning
TTITLE1=Alone Without You
TTITLE2=Head In The Clouds
TTITLE3=Gravity
TTITLE4=Turn The Light On
TTITLE5=Close To The Edge
TTITLE6=Crush
TTITLE7=Kill With Your Smile 
TTITLE8=Pieces Of Heaven
TTITLE9=How Do You Love
TTITLE10=Baby I'm No Good
EXTD=
EXTT0=
EXTT1=
EXTT2=
EXTT3=
EXTT4=
EXTT5=
EXTT6=
EXTT7=
EXTT8=
EXTT9=
EXTT10=
PLAYORDER=
